<?xml version="1.0" standalone="no"?><!DOCTYPE svg PUBLIC "-//W3C//DTD SVG 1.1//EN" "http://www.w3.org/Graphics/SVG/1.1/DTD/svg11.dtd"><svg t="1596523089093" class="icon" viewBox="0 0 1024 1024" version="1.1" xmlns="http://www.w3.org/2000/svg" p-id="46170" xmlns:xlink="http://www.w3.org/1999/xlink" width="200" height="200"><defs><style type="text/css"></style></defs><path d="M310.3744 313.1392c11.52 13.3632 31.744 14.8992 45.1072 3.328 0.2048-0.2048 0.4096-0.3584 0.6144-0.5632l138.8032-123.0336v502.6816c0 17.664 14.336 32 32 32s32-14.336 32-32V192.9216l138.8032 123.0336a31.9744 31.9744 0 0 0 45.056-4.5056 32.01536 32.01536 0 0 0-2.6112-43.4176l-192-170.1888a31.95904 31.95904 0 0 0-42.4448 0l-192 170.1888a31.95904 31.95904 0 0 0-3.328 45.1072z" p-id="46171" fill="#999999"></path><path d="M926.3104 99.4304h-171.8272v0.1024a31.9744 31.9744 0 0 0-29.5936 31.8976c0 16.8448 13.056 30.6688 29.5936 31.8976v0.1024h166.7072v738.816H131.4816V163.4304h159.5904v-0.1024c16.896-0.8704 30.3616-14.7968 30.3616-31.8976 0-17.1008-13.4656-31.0272-30.3616-31.8976v-0.1024H126.3104c-32.4608 0-58.8288 25.7024-58.8288 57.2416v752.3328c0 31.5904 26.4192 57.2416 58.8288 57.2416h799.9488c32.4608 0 58.8288-25.7024 58.8288-57.2416V156.672c0.0512-31.5904-26.368-57.2416-58.7776-57.2416z" p-id="46172" fill="#999999"></path></svg>