<?xml version="1.0" standalone="no"?><!DOCTYPE svg PUBLIC "-//W3C//DTD SVG 1.1//EN" "http://www.w3.org/Graphics/SVG/1.1/DTD/svg11.dtd"><svg t="1596523156233" class="icon" viewBox="0 0 1024 1024" version="1.1" xmlns="http://www.w3.org/2000/svg" p-id="48421" xmlns:xlink="http://www.w3.org/1999/xlink" width="200" height="200"><defs><style type="text/css"></style></defs><path d="M324.64233272 563.28948893c-0.65989702 0.82622497-1.33408779 1.73474811-1.62321229 2.80786543l-51.02865284 187.08051437c-2.97137818 10.89577501 0.06930367 22.67300056 8.1316566 30.92767045 6.03956392 5.86045819 13.99103228 9.10688386 22.43953507 9.10688386 2.80613275 0 5.61291568-0.32919053 8.36403958-1.07203481l185.80056963-50.65744687c0.27504749 0 0.41257123 0.27504749 0.63304223 0.27504748 2.14623573 0 4.2372459-0.79698733 5.83273651-2.42236573l496.77281984-496.71477801c14.77459274-14.7750251 22.86466736-34.89030123 22.86466736-56.79273583 0-24.79108117-10.53842936-49.61010075-28.9471125-67.99127893l-46.91507037-46.99671731c-18.40759954-18.43510451-43.25499096-28.97461747-68.01986641-28.97461747-21.90200117 0-42.01619477 8.08942554-56.84579637 22.81095667L325.38517808 561.58506097C324.86280479 562.05177526 325.02740006 562.73939396 324.64233272 563.28948893M951.37049194 194.00091334l-49.3363536 49.3086319-80.01583136-81.28169908 48.64851816-48.62144664c7.67642088-7.73099736 22.61777392-6.6037359 31.42232205 2.22961643l46.91615289 46.99715075c4.92486461 4.92421445 7.73056393 11.41771486 7.73056393 17.82978397C956.73586509 185.77266481 954.80945019 190.56065476 951.37049194 194.00091334M412.99578121 571.10451606l358.44867631-358.50281935 80.01583136 81.3364912L493.69966364 651.72675047 412.99578121 571.10451606 412.99578121 571.10451606 412.99578121 571.10451606zM347.67311129 716.44280063l25.89235363-95.09470816 69.09190231 69.09298483L347.67311129 716.44280063 347.67311129 716.44280063 347.67311129 716.44280063zM982.84804063 390.8492911c-18.81995405 0-34.257259 15.2986987-34.31140314 34.33912375l0 463.09250952c0 24.29513034-19.70162238 43.99653601-44.02598928 43.99653602L121.09384384 932.27746039c-24.26914133 0-44.09399372-19.70162238-44.09399371-43.99653602L76.99985121 132.42061991c0-24.29729537 19.79842994-44.05392769 44.09399372-44.05392768l504.57160384 0c18.87539741 0 34.22932168-15.35392427 34.22932169-34.25639321 0-18.87583086-15.35392427-34.25790916-34.22932169-34.25790916L115.87985582 19.85239094c-59.22809607 0-107.39430698 48.15256625-107.39430699 107.39495714l0 766.26164351c0 59.2681621 48.16621092 107.3657195 107.39430699 107.3657195l793.80363188 0c59.24217417 0 107.42311118-48.09734068 107.42311118-107.3657195L1017.10659888 424.99566554C1016.99506415 406.14798981 1001.61515086 390.8492911 982.84804063 390.8492911" fill="#999999" p-id="48422"></path></svg>